<?xml version="1.0" encoding="utf-8"?>
<!DOCTYPE svg PUBLIC "-//W3C//DTD SVG 1.1//EN" "http://www.w3.org/Graphics/SVG/1.1/DTD/svg11.dtd">
<svg version="1.1" id="Layer_1" xmlns="http://www.w3.org/2000/svg" xmlns:xlink="http://www.w3.org/1999/xlink" x="0px" y="0px"
 viewBox="0 0 24 24" enable-background="new 0 0 24 24" xml:space="preserve">
<path fill="none" d="M0,0h24v24H0V0z"/>
<path fill="#FFCC00" d="M12,2C6.5,2,2,6.5,2,12s4.5,10,10,10s10-4.5,10-10S17.5,2,12,2z M4,12c0-4.4,3.6-8,8-8
 c1.9,0,3.6,0.6,4.9,1.7L5.7,16.9C4.6,15.5,4,13.8,4,12z M12,20c-1.9,0-3.6-0.6-4.9-1.7L18.3,7.1C19.4,8.4,20,10.1,20,12
 C20,16.4,16.4,20,12,20z"/>
</svg>
